<svg width="29" height="23" viewBox="0 0 29 23" fill="none" xmlns="http://www.w3.org/2000/svg">
<g clip-path="url(#clip0_2741_636)">
<path d="M0 1.07812C0 0.480664 0.538715 0 1.20833 0H3.49913C4.60677 0 5.58854 0.575 6.0467 1.4375H26.7394C28.0635 1.4375 29.0302 2.56055 28.6828 3.70156L26.6186 10.5432C26.1906 11.9537 24.7557 12.9375 23.1194 12.9375H8.59427L8.86615 14.2178C8.97691 14.7254 9.47535 15.0938 10.0543 15.0938H24.5694C25.2391 15.0938 25.7778 15.5744 25.7778 16.1719C25.7778 16.7693 25.2391 17.25 24.5694 17.25H10.0543C8.31233 17.25 6.81701 16.1449 6.49479 14.6221L3.89688 2.44824C3.86163 2.27754 3.69549 2.15625 3.49913 2.15625H1.20833C0.538715 2.15625 0 1.67559 0 1.07812ZM6.44444 20.8438C6.44444 20.5606 6.50695 20.2802 6.6284 20.0186C6.74985 19.757 6.92786 19.5193 7.15227 19.3191C7.37668 19.1188 7.64309 18.96 7.93629 18.8516C8.2295 18.7433 8.54375 18.6875 8.86111 18.6875C9.17847 18.6875 9.49273 18.7433 9.78593 18.8516C10.0791 18.96 10.3455 19.1188 10.57 19.3191C10.7944 19.5193 10.9724 19.757 11.0938 20.0186C11.2153 20.2802 11.2778 20.5606 11.2778 20.8438C11.2778 21.1269 11.2153 21.4073 11.0938 21.6689C10.9724 21.9305 10.7944 22.1682 10.57 22.3684C10.3455 22.5687 10.0791 22.7275 9.78593 22.8359C9.49273 22.9442 9.17847 23 8.86111 23C8.54375 23 8.2295 22.9442 7.93629 22.8359C7.64309 22.7275 7.37668 22.5687 7.15227 22.3684C6.92786 22.1682 6.74985 21.9305 6.6284 21.6689C6.50695 21.4073 6.44444 21.1269 6.44444 20.8438ZM23.3611 18.6875C24.0021 18.6875 24.6167 18.9147 25.07 19.3191C25.5232 19.7234 25.7778 20.2719 25.7778 20.8438C25.7778 21.4156 25.5232 21.9641 25.07 22.3684C24.6167 22.7728 24.0021 23 23.3611 23C22.7202 23 22.1055 22.7728 21.6523 22.3684C21.1991 21.9641 20.9444 21.4156 20.9444 20.8438C20.9444 20.2719 21.1991 19.7234 21.6523 19.3191C22.1055 18.9147 22.7202 18.6875 23.3611 18.6875Z" fill="#FF634D"/>
</g>
<defs>
<clipPath id="clip0_2741_636">
<rect width="29" height="23" fill="white"/>
</clipPath>
</defs>
</svg>
