<svg width="343" height="94" viewBox="0 0 343 94" fill="none" xmlns="http://www.w3.org/2000/svg">
<g filter="url(#filter0_d_837_839)">
<path d="M52.0392 3.93754L6.15043 59.0638C5.44375 59.9128 5.55908 61.1738 6.40801 61.8805L12.0481 66.5755C12.0481 66.5755 20.8934 61.7881 25.9776 66.6278C31.0618 71.4676 27.1201 79.1219 27.1201 79.1219L32.7507 83.809C33.6034 84.5187 34.8707 84.3989 35.5752 83.542L81.433 27.7604C82.1055 26.9424 82.0238 25.7419 81.2466 25.0226L76.111 20.269C76.111 20.269 67.9834 25.6538 62.9593 21.4717C57.9353 17.2896 61.8168 8.9776 61.8168 8.9776L54.7879 3.62583C53.9359 2.97716 52.7242 3.11457 52.0392 3.93754Z" fill="#F5E5E5" stroke="black" stroke-width="3"/>
<line x1="43.6713" y1="18.376" x2="72.38" y2="42.274" stroke="black" stroke-width="2" stroke-dasharray="4 4"/>
</g>
<g filter="url(#filter1_d_837_839)">
<path d="M60.32 39.0598V42.4498H54.74V59.9998H50.54V42.4498H44.96V39.0598H60.32ZM69.3845 39.0598V59.9998H65.1845V39.0598H69.3845ZM74.3141 49.4998C74.3141 47.4398 74.7741 45.5998 75.6941 43.9798C76.6341 42.3398 77.9041 41.0698 79.5041 40.1698C81.1241 39.2498 82.9341 38.7898 84.9341 38.7898C87.2741 38.7898 89.3241 39.3898 91.0841 40.5898C92.8441 41.7898 94.0741 43.4498 94.7741 45.5698H89.9441C89.4641 44.5698 88.7841 43.8198 87.9041 43.3198C87.0441 42.8198 86.0441 42.5698 84.9041 42.5698C83.6841 42.5698 82.5941 42.8598 81.6341 43.4398C80.6941 43.9998 79.9541 44.7998 79.4141 45.8398C78.8941 46.8798 78.6341 48.0998 78.6341 49.4998C78.6341 50.8798 78.8941 52.0998 79.4141 53.1598C79.9541 54.1998 80.6941 55.0098 81.6341 55.5898C82.5941 56.1498 83.6841 56.4298 84.9041 56.4298C86.0441 56.4298 87.0441 56.1798 87.9041 55.6798C88.7841 55.1598 89.4641 54.3998 89.9441 53.3998H94.7741C94.0741 55.5398 92.8441 57.2098 91.0841 58.4098C89.3441 59.5898 87.2941 60.1798 84.9341 60.1798C82.9341 60.1798 81.1241 59.7298 79.5041 58.8298C77.9041 57.9098 76.6341 56.6398 75.6941 55.0198C74.7741 53.3998 74.3141 51.5598 74.3141 49.4998ZM111.981 59.9998L104.361 50.6698V59.9998H100.161V39.0598H104.361V48.4498L111.981 39.0598H117.051L108.411 49.4398L117.291 59.9998H111.981ZM126.054 42.4498V47.6998H133.104V51.0298H126.054V56.5798H134.004V59.9998H121.854V39.0298H134.004V42.4498H126.054ZM153.871 39.0598V42.4498H148.291V59.9998H144.091V42.4498H138.511V39.0598H153.871ZM176.105 39.0598V59.9998H171.905V51.0898H162.935V59.9998H158.735V39.0598H162.935V47.6698H171.905V39.0598H176.105ZM186.179 39.0598V52.0198C186.179 53.4398 186.549 54.5298 187.289 55.2898C188.029 56.0298 189.069 56.3998 190.409 56.3998C191.769 56.3998 192.819 56.0298 193.559 55.2898C194.299 54.5298 194.669 53.4398 194.669 52.0198V39.0598H198.899V51.9898C198.899 53.7698 198.509 55.2798 197.729 56.5198C196.969 57.7398 195.939 58.6598 194.639 59.2798C193.359 59.8998 191.929 60.2098 190.349 60.2098C188.789 60.2098 187.369 59.8998 186.089 59.2798C184.829 58.6598 183.829 57.7398 183.089 56.5198C182.349 55.2798 181.979 53.7698 181.979 51.9898V39.0598H186.179ZM216.637 49.2598C217.817 49.4798 218.787 50.0698 219.547 51.0298C220.307 51.9898 220.687 53.0898 220.687 54.3298C220.687 55.4498 220.407 56.4398 219.847 57.2998C219.307 58.1398 218.517 58.7998 217.477 59.2798C216.437 59.7598 215.207 59.9998 213.787 59.9998H204.757V39.0598H213.397C214.817 39.0598 216.037 39.2898 217.057 39.7498C218.097 40.2098 218.877 40.8498 219.397 41.6698C219.937 42.4898 220.207 43.4198 220.207 44.4598C220.207 45.6798 219.877 46.6998 219.217 47.5198C218.577 48.3398 217.717 48.9198 216.637 49.2598ZM208.957 47.6998H212.797C213.797 47.6998 214.567 47.4798 215.107 47.0398C215.647 46.5798 215.917 45.9298 215.917 45.0898C215.917 44.2498 215.647 43.5998 215.107 43.1398C214.567 42.6798 213.797 42.4498 212.797 42.4498H208.957V47.6998ZM213.187 56.5798C214.207 56.5798 214.997 56.3398 215.557 55.8598C216.137 55.3798 216.427 54.6998 216.427 53.8198C216.427 52.9198 216.127 52.2198 215.527 51.7198C214.927 51.1998 214.117 50.9398 213.097 50.9398H208.957V56.5798H213.187ZM227.694 60.2098C226.934 60.2098 226.304 59.9798 225.804 59.5198C225.324 59.0398 225.084 58.4498 225.084 57.7498C225.084 57.0498 225.324 56.4698 225.804 56.0098C226.304 55.5298 226.934 55.2898 227.694 55.2898C228.434 55.2898 229.044 55.5298 229.524 56.0098C230.004 56.4698 230.244 57.0498 230.244 57.7498C230.244 58.4498 230.004 59.0398 229.524 59.5198C229.044 59.9798 228.434 60.2098 227.694 60.2098ZM234.407 49.4998C234.407 47.4398 234.867 45.5998 235.787 43.9798C236.727 42.3398 237.997 41.0698 239.597 40.1698C241.217 39.2498 243.027 38.7898 245.027 38.7898C247.367 38.7898 249.417 39.3898 251.177 40.5898C252.937 41.7898 254.167 43.4498 254.867 45.5698H250.037C249.557 44.5698 248.877 43.8198 247.997 43.3198C247.137 42.8198 246.137 42.5698 244.997 42.5698C243.777 42.5698 242.687 42.8598 241.727 43.4398C240.787 43.9998 240.047 44.7998 239.507 45.8398C238.987 46.8798 238.727 48.0998 238.727 49.4998C238.727 50.8798 238.987 52.0998 239.507 53.1598C240.047 54.1998 240.787 55.0098 241.727 55.5898C242.687 56.1498 243.777 56.4298 244.997 56.4298C246.137 56.4298 247.137 56.1798 247.997 55.6798C248.877 55.1598 249.557 54.3998 250.037 53.3998H254.867C254.167 55.5398 252.937 57.2098 251.177 58.4098C249.437 59.5898 247.387 60.1798 245.027 60.1798C243.027 60.1798 241.217 59.7298 239.597 58.8298C237.997 57.9098 236.727 56.6398 235.787 55.0198C234.867 53.3998 234.407 51.5598 234.407 49.4998ZM269.975 60.2098C268.015 60.2098 266.215 59.7498 264.575 58.8298C262.935 57.9098 261.635 56.6398 260.675 55.0198C259.715 53.3798 259.235 51.5298 259.235 49.4698C259.235 47.4298 259.715 45.5998 260.675 43.9798C261.635 42.3398 262.935 41.0598 264.575 40.1398C266.215 39.2198 268.015 38.7598 269.975 38.7598C271.955 38.7598 273.755 39.2198 275.375 40.1398C277.015 41.0598 278.305 42.3398 279.245 43.9798C280.205 45.5998 280.685 47.4298 280.685 49.4698C280.685 51.5298 280.205 53.3798 279.245 55.0198C278.305 56.6398 277.015 57.9098 275.375 58.8298C273.735 59.7498 271.935 60.2098 269.975 60.2098ZM269.975 56.4598C271.235 56.4598 272.345 56.1798 273.305 55.6198C274.265 55.0398 275.015 54.2198 275.555 53.1598C276.095 52.0998 276.365 50.8698 276.365 49.4698C276.365 48.0698 276.095 46.8498 275.555 45.8098C275.015 44.7498 274.265 43.9398 273.305 43.3798C272.345 42.8198 271.235 42.5398 269.975 42.5398C268.715 42.5398 267.595 42.8198 266.615 43.3798C265.655 43.9398 264.905 44.7498 264.365 45.8098C263.825 46.8498 263.555 48.0698 263.555 49.4698C263.555 50.8698 263.825 52.0998 264.365 53.1598C264.905 54.2198 265.655 55.0398 266.615 55.6198C267.595 56.1798 268.715 56.4598 269.975 56.4598ZM308.439 39.0598V59.9998H304.239V46.3798L298.629 59.9998H295.449L289.809 46.3798V59.9998H285.609V39.0598H290.379L297.039 54.6298L303.699 39.0598H308.439Z" fill="#F5E5E5"/>
<path d="M60.32 39.0598H60.82V38.5598H60.32V39.0598ZM60.32 42.4498V42.9498H60.82V42.4498H60.32ZM54.74 42.4498V41.9498H54.24V42.4498H54.74ZM54.74 59.9998V60.4998H55.24V59.9998H54.74ZM50.54 59.9998H50.04V60.4998H50.54V59.9998ZM50.54 42.4498H51.04V41.9498H50.54V42.4498ZM44.96 42.4498H44.46V42.9498H44.96V42.4498ZM44.96 39.0598V38.5598H44.46V39.0598H44.96ZM59.82 39.0598V42.4498H60.82V39.0598H59.82ZM60.32 41.9498H54.74V42.9498H60.32V41.9498ZM54.24 42.4498V59.9998H55.24V42.4498H54.24ZM54.74 59.4998H50.54V60.4998H54.74V59.4998ZM51.04 59.9998V42.4498H50.04V59.9998H51.04ZM50.54 41.9498H44.96V42.9498H50.54V41.9498ZM45.46 42.4498V39.0598H44.46V42.4498H45.46ZM44.96 39.5598H60.32V38.5598H44.96V39.5598ZM69.3845 39.0598H69.8845V38.5598H69.3845V39.0598ZM69.3845 59.9998V60.4998H69.8845V59.9998H69.3845ZM65.1845 59.9998H64.6845V60.4998H65.1845V59.9998ZM65.1845 39.0598V38.5598H64.6845V39.0598H65.1845ZM68.8845 39.0598V59.9998H69.8845V39.0598H68.8845ZM69.3845 59.4998H65.1845V60.4998H69.3845V59.4998ZM65.6845 59.9998V39.0598H64.6845V59.9998H65.6845ZM65.1845 39.5598H69.3845V38.5598H65.1845V39.5598ZM75.6941 43.9798L75.2603 43.7311L75.2593 43.7328L75.6941 43.9798ZM79.5041 40.1698L79.7492 40.6055L79.751 40.6045L79.5041 40.1698ZM94.7741 45.5698V46.0698H95.4657L95.2489 45.413L94.7741 45.5698ZM89.9441 45.5698L89.4933 45.7861L89.6294 46.0698H89.9441V45.5698ZM87.9041 43.3198L87.6527 43.752L87.6571 43.7545L87.9041 43.3198ZM81.6341 43.4398L81.89 43.8693L81.8926 43.8677L81.6341 43.4398ZM79.4141 45.8398L78.9703 45.6093L78.9669 45.6161L79.4141 45.8398ZM79.4141 53.1598L78.965 53.38L78.9703 53.3902L79.4141 53.1598ZM81.6341 55.5898L81.3714 56.0154L81.3821 56.0216L81.6341 55.5898ZM87.9041 55.6798L88.1554 56.112L88.1584 56.1102L87.9041 55.6798ZM89.9441 53.3998V52.8998H89.6294L89.4933 53.1834L89.9441 53.3998ZM94.7741 53.3998L95.2493 53.5552L95.4637 52.8998H94.7741V53.3998ZM91.0841 58.4098L91.3647 58.8236L91.3657 58.8229L91.0841 58.4098ZM79.5041 58.8298L79.2548 59.2633L79.2612 59.2668L79.5041 58.8298ZM75.6941 55.0198L75.2593 55.2667L75.2616 55.2707L75.6941 55.0198ZM74.8141 49.4998C74.8141 47.5169 75.256 45.7636 76.1288 44.2267L75.2593 43.7328C74.2921 45.4359 73.8141 47.3626 73.8141 49.4998H74.8141ZM76.1279 44.2284C77.0244 42.6642 78.2302 41.46 79.7492 40.6055L79.2589 39.734C77.5779 40.6795 76.2437 42.0153 75.2603 43.7311L76.1279 44.2284ZM79.751 40.6045C81.2902 39.7304 83.0141 39.2898 84.9341 39.2898V38.2898C82.8541 38.2898 80.9579 38.7691 79.2571 39.735L79.751 40.6045ZM84.9341 39.2898C87.1839 39.2898 89.1336 39.865 90.8024 41.0029L91.3657 40.1766C89.5146 38.9145 87.3642 38.2898 84.9341 38.2898V39.2898ZM90.8024 41.0029C92.467 42.1378 93.632 43.7055 94.2993 45.7265L95.2489 45.413C94.5162 43.194 93.2211 41.4417 91.3657 40.1766L90.8024 41.0029ZM94.7741 45.0698H89.9441V46.0698H94.7741V45.0698ZM90.3948 45.3534C89.8752 44.2708 89.1281 43.4402 88.1511 42.885L87.6571 43.7545C88.44 44.1993 89.053 44.8687 89.4933 45.7861L90.3948 45.3534ZM88.1554 42.8875C87.2085 42.337 86.1193 42.0698 84.9041 42.0698V43.0698C85.9689 43.0698 86.8796 43.3025 87.6528 43.752L88.1554 42.8875ZM84.9041 42.0698C83.6012 42.0698 82.4203 42.3806 81.3755 43.0118L81.8926 43.8677C82.7678 43.3389 83.7669 43.0698 84.9041 43.0698V42.0698ZM81.3782 43.0102C80.3525 43.6212 79.55 44.4929 78.9703 45.6093L79.8578 46.0702C80.3581 45.1066 81.0356 44.3783 81.89 43.8693L81.3782 43.0102ZM78.9669 45.6161C78.4058 46.7383 78.1341 48.0378 78.1341 49.4998H79.1341C79.1341 48.1617 79.3824 47.0212 79.8613 46.0634L78.9669 45.6161ZM78.1341 49.4998C78.1341 50.9433 78.4063 52.2408 78.9652 53.38L79.863 52.9395C79.3818 51.9587 79.1341 50.8163 79.1341 49.4998H78.1341ZM78.9703 53.3902C79.5493 54.5053 80.3498 55.3849 81.3715 56.0153L81.8966 55.1642C81.0383 54.6346 80.3588 53.8942 79.8578 52.9293L78.9703 53.3902ZM81.3821 56.0216C82.4259 56.6305 83.6044 56.9298 84.9041 56.9298V55.9298C83.7637 55.9298 82.7622 55.669 81.886 55.1579L81.3821 56.0216ZM84.9041 56.9298C86.1193 56.9298 87.2085 56.6625 88.1554 56.112L87.6528 55.2475C86.8796 55.697 85.9689 55.9298 84.9041 55.9298V56.9298ZM88.1584 56.1102C89.1309 55.5356 89.8758 54.6974 90.3948 53.6161L89.4933 53.1834C89.0523 54.1021 88.4372 54.784 87.6497 55.2493L88.1584 56.1102ZM89.9441 53.8998H94.7741V52.8998H89.9441V53.8998ZM94.2988 53.2443C93.6311 55.2858 92.4658 56.8625 90.8024 57.9966L91.3657 58.8229C93.2223 57.557 94.5171 55.7937 95.2493 53.5552L94.2988 53.2443ZM90.8034 57.9959C89.1562 59.113 87.2067 59.6798 84.9341 59.6798V60.6798C87.3814 60.6798 89.5319 60.0665 91.3647 58.8236L90.8034 57.9959ZM84.9341 59.6798C83.0121 59.6798 81.2868 59.2482 79.7469 58.3927L79.2612 59.2668C80.9613 60.2113 82.856 60.6798 84.9341 60.6798V59.6798ZM79.7533 58.3963C78.2305 57.5207 77.0232 56.3141 76.1265 54.7688L75.2616 55.2707C76.2449 56.9654 77.5776 58.2988 79.2548 59.2632L79.7533 58.3963ZM76.1288 54.7728C75.256 53.2359 74.8141 51.4826 74.8141 49.4998H73.8141C73.8141 51.6369 74.2921 53.5636 75.2593 55.2667L76.1288 54.7728ZM111.981 59.9998L111.594 60.316L111.744 60.4998H111.981V59.9998ZM104.361 50.6698L104.749 50.3535L103.861 49.2671V50.6698H104.361ZM104.361 59.9998V60.4998H104.861V59.9998H104.361ZM100.161 59.9998H99.6614V60.4998H100.161V59.9998ZM100.161 39.0598V38.5598H99.6614V39.0598H100.161ZM104.361 39.0598H104.861V38.5598H104.361V39.0598ZM104.361 48.4498H103.861V49.8594L104.75 48.7648L104.361 48.4498ZM111.981 39.0598V38.5598H111.743L111.593 38.7447L111.981 39.0598ZM117.051 39.0598L117.436 39.3796L118.118 38.5598H117.051V39.0598ZM108.411 49.4398L108.027 49.1199L107.759 49.4414L108.029 49.7616L108.411 49.4398ZM117.291 59.9998V60.4998H118.365L117.674 59.678L117.291 59.9998ZM112.369 59.6835L104.749 50.3535L103.974 50.986L111.594 60.316L112.369 59.6835ZM103.861 50.6698V59.9998H104.861V50.6698H103.861ZM104.361 59.4998H100.161V60.4998H104.361V59.4998ZM100.661 59.9998V39.0598H99.6614V59.9998H100.661ZM100.161 39.5598H104.361V38.5598H100.161V39.5598ZM103.861 39.0598V48.4498H104.861V39.0598H103.861ZM104.75 48.7648L112.37 39.3748L111.593 38.7447L103.973 48.1347L104.75 48.7648ZM111.981 39.5598H117.051V38.5598H111.981V39.5598ZM116.667 38.7399L108.027 49.1199L108.796 49.7596L117.436 39.3796L116.667 38.7399ZM108.029 49.7616L116.909 60.3216L117.674 59.678L108.794 49.118L108.029 49.7616ZM117.291 59.4998H111.981V60.4998H117.291V59.4998ZM126.054 42.4498V41.9498H125.554V42.4498H126.054ZM126.054 47.6998H125.554V48.1998H126.054V47.6998ZM133.104 47.6998H133.604V47.1998H133.104V47.6998ZM133.104 51.0298V51.5298H133.604V51.0298H133.104ZM126.054 51.0298V50.5298H125.554V51.0298H126.054ZM126.054 56.5798H125.554V57.0798H126.054V56.5798ZM134.004 56.5798H134.504V56.0798H134.004V56.5798ZM134.004 59.9998V60.4998H134.504V59.9998H134.004ZM121.854 59.9998H121.354V60.4998H121.854V59.9998ZM121.854 39.0298V38.5298H121.354V39.0298H121.854ZM134.004 39.0298H134.504V38.5298H134.004V39.0298ZM134.004 42.4498V42.9498H134.504V42.4498H134.004ZM125.554 42.4498V47.6998H126.554V42.4498H125.554ZM126.054 48.1998H133.104V47.1998H126.054V48.1998ZM132.604 47.6998V51.0298H133.604V47.6998H132.604ZM133.104 50.5298H126.054V51.5298H133.104V50.5298ZM125.554 51.0298V56.5798H126.554V51.0298H125.554ZM126.054 57.0798H134.004V56.0798H126.054V57.0798ZM133.504 56.5798V59.9998H134.504V56.5798H133.504ZM134.004 59.4998H121.854V60.4998H134.004V59.4998ZM122.354 59.9998V39.0298H121.354V59.9998H122.354ZM121.854 39.5298H134.004V38.5298H121.854V39.5298ZM133.504 39.0298V42.4498H134.504V39.0298H133.504ZM134.004 41.9498H126.054V42.9498H134.004V41.9498ZM153.871 39.0598H154.371V38.5598H153.871V39.0598ZM153.871 42.4498V42.9498H154.371V42.4498H153.871ZM148.291 42.4498V41.9498H147.791V42.4498H148.291ZM148.291 59.9998V60.4998H148.791V59.9998H148.291ZM144.091 59.9998H143.591V60.4998H144.091V59.9998ZM144.091 42.4498H144.591V41.9498H144.091V42.4498ZM138.511 42.4498H138.011V42.9498H138.511V42.4498ZM138.511 39.0598V38.5598H138.011V39.0598H138.511ZM153.371 39.0598V42.4498H154.371V39.0598H153.371ZM153.871 41.9498H148.291V42.9498H153.871V41.9498ZM147.791 42.4498V59.9998H148.791V42.4498H147.791ZM148.291 59.4998H144.091V60.4998H148.291V59.4998ZM144.591 59.9998V42.4498H143.591V59.9998H144.591ZM144.091 41.9498H138.511V42.9498H144.091V41.9498ZM139.011 42.4498V39.0598H138.011V42.4498H139.011ZM138.511 39.5598H153.871V38.5598H138.511V39.5598ZM176.105 39.0598H176.605V38.5598H176.105V39.0598ZM176.105 59.9998V60.4998H176.605V59.9998H176.105ZM171.905 59.9998H171.405V60.4998H171.905V59.9998ZM171.905 51.0898H172.405V50.5898H171.905V51.0898ZM162.935 51.0898V50.5898H162.435V51.0898H162.935ZM162.935 59.9998V60.4998H163.435V59.9998H162.935ZM158.735 59.9998H158.235V60.4998H158.735V59.9998ZM158.735 39.0598V38.5598H158.235V39.0598H158.735ZM162.935 39.0598H163.435V38.5598H162.935V39.0598ZM162.935 47.6698H162.435V48.1698H162.935V47.6698ZM171.905 47.6698V48.1698H172.405V47.6698H171.905ZM171.905 39.0598V38.5598H171.405V39.0598H171.905ZM175.605 39.0598V59.9998H176.605V39.0598H175.605ZM176.105 59.4998H171.905V60.4998H176.105V59.4998ZM172.405 59.9998V51.0898H171.405V59.9998H172.405ZM171.905 50.5898H162.935V51.5898H171.905V50.5898ZM162.435 51.0898V59.9998H163.435V51.0898H162.435ZM162.935 59.4998H158.735V60.4998H162.935V59.4998ZM159.235 59.9998V39.0598H158.235V59.9998H159.235ZM158.735 39.5598H162.935V38.5598H158.735V39.5598ZM162.435 39.0598V47.6698H163.435V39.0598H162.435ZM162.935 48.1698H171.905V47.1698H162.935V48.1698ZM172.405 47.6698V39.0598H171.405V47.6698H172.405ZM171.905 39.5598H176.105V38.5598H171.905V39.5598ZM186.179 39.0598H186.679V38.5598H186.179V39.0598ZM187.289 55.2898L186.931 55.6386L186.936 55.6433L187.289 55.2898ZM193.559 55.2898L193.913 55.6433L193.917 55.6386L193.559 55.2898ZM194.669 39.0598V38.5598H194.169V39.0598H194.669ZM198.899 39.0598H199.399V38.5598H198.899V39.0598ZM197.729 56.5198L197.306 56.2535L197.305 56.2554L197.729 56.5198ZM194.639 59.2798L194.424 58.8284L194.421 58.8298L194.639 59.2798ZM186.089 59.2798L185.868 59.7284L185.871 59.7297L186.089 59.2798ZM183.089 56.5198L182.66 56.776L182.662 56.7791L183.089 56.5198ZM181.979 39.0598V38.5598H181.479V39.0598H181.979ZM185.679 39.0598V52.0198H186.679V39.0598H185.679ZM185.679 52.0198C185.679 53.5247 186.073 54.7571 186.931 55.6386L187.647 54.9409C187.026 54.3024 186.679 53.3548 186.679 52.0198H185.679ZM186.936 55.6433C187.794 56.5014 188.976 56.8998 190.409 56.8998V55.8998C189.163 55.8998 188.265 55.5581 187.643 54.9362L186.936 55.6433ZM190.409 56.8998C191.86 56.8998 193.053 56.5028 193.913 55.6433L193.206 54.9362C192.585 55.5567 191.678 55.8998 190.409 55.8998V56.8998ZM193.917 55.6386C194.776 54.7571 195.169 53.5247 195.169 52.0198H194.169C194.169 53.3548 193.823 54.3024 193.201 54.9409L193.917 55.6386ZM195.169 52.0198V39.0598H194.169V52.0198H195.169ZM194.669 39.5598H198.899V38.5598H194.669V39.5598ZM198.399 39.0598V51.9898H199.399V39.0598H198.399ZM198.399 51.9898C198.399 53.6959 198.026 55.1089 197.306 56.2535L198.152 56.786C198.992 55.4506 199.399 53.8436 199.399 51.9898H198.399ZM197.305 56.2554C196.595 57.3942 195.638 58.2494 194.424 58.8285L194.854 59.7311C196.24 59.0701 197.343 58.0853 198.154 56.7841L197.305 56.2554ZM194.421 58.8298C193.216 59.4134 191.862 59.7098 190.349 59.7098V60.7098C191.996 60.7098 193.502 60.3862 194.857 59.7297L194.421 58.8298ZM190.349 59.7098C188.857 59.7098 187.513 59.4138 186.307 58.8298L185.871 59.7297C187.226 60.3857 188.721 60.7098 190.349 60.7098V59.7098ZM186.31 58.8311C185.137 58.2539 184.208 57.4003 183.517 56.2605L182.662 56.7791C183.45 58.0792 184.521 59.0656 185.868 59.7284L186.31 58.8311ZM183.519 56.2635C182.834 55.1172 182.479 53.7004 182.479 51.9898H181.479C181.479 53.8391 181.864 55.4423 182.66 56.776L183.519 56.2635ZM182.479 51.9898V39.0598H181.479V51.9898H182.479ZM181.979 39.5598H186.179V38.5598H181.979V39.5598ZM216.637 49.2598L216.487 48.7828L216.545 49.7513L216.637 49.2598ZM219.547 51.0298L219.939 50.7194L219.547 51.0298ZM219.847 57.2998L219.428 57.0269L219.427 57.0294L219.847 57.2998ZM217.477 59.2798L217.687 59.7337L217.477 59.2798ZM204.757 59.9998H204.257V60.4998H204.757V59.9998ZM204.757 39.0598V38.5598H204.257V39.0598H204.757ZM217.057 39.7498L216.852 40.2056L216.855 40.207L217.057 39.7498ZM219.397 41.6698L218.975 41.9376L218.98 41.9448L219.397 41.6698ZM219.217 47.5198L218.828 47.2062L218.823 47.2121L219.217 47.5198ZM208.957 47.6998H208.457V48.1998H208.957V47.6998ZM215.107 47.0398L215.423 47.4275L215.431 47.4204L215.107 47.0398ZM215.107 43.1398L215.431 42.7591L215.107 43.1398ZM208.957 42.4498V41.9498H208.457V42.4498H208.957ZM215.557 55.8598L215.238 55.4745L215.232 55.4801L215.557 55.8598ZM215.527 51.7198L215.2 52.0977L215.207 52.1039L215.527 51.7198ZM208.957 50.9398V50.4398H208.457V50.9398H208.957ZM208.957 56.5798H208.457V57.0798H208.957V56.5798ZM216.545 49.7513C217.604 49.9487 218.468 50.4727 219.155 51.3401L219.939 50.7194C219.106 49.6668 218.03 49.0108 216.729 48.7682L216.545 49.7513ZM219.155 51.3401C219.844 52.2106 220.187 53.2009 220.187 54.3298H221.187C221.187 52.9787 220.77 51.7689 219.939 50.7194L219.155 51.3401ZM220.187 54.3298C220.187 55.3621 219.93 56.2555 219.428 57.0269L220.266 57.5726C220.884 56.624 221.187 55.5374 221.187 54.3298H220.187ZM219.427 57.0294C218.945 57.7781 218.234 58.3796 217.268 58.8258L217.687 59.7337C218.8 59.2199 219.669 58.5014 220.268 57.5701L219.427 57.0294ZM217.268 58.8258C216.307 59.2691 215.152 59.4998 213.787 59.4998V60.4998C215.263 60.4998 216.567 60.2504 217.687 59.7337L217.268 58.8258ZM213.787 59.4998H204.757V60.4998H213.787V59.4998ZM205.257 59.9998V39.0598H204.257V59.9998H205.257ZM204.757 39.5598H213.397V38.5598H204.757V39.5598ZM213.397 39.5598C214.765 39.5598 215.911 39.7814 216.852 40.2055L217.263 39.294C216.163 38.7981 214.87 38.5598 213.397 38.5598V39.5598ZM216.855 40.207C217.82 40.634 218.516 41.2146 218.975 41.9375L219.819 41.402C219.238 40.4849 218.374 39.7855 217.259 39.2925L216.855 40.207ZM218.98 41.9448C219.463 42.6782 219.707 43.5114 219.707 44.4598H220.707C220.707 43.3281 220.412 42.3013 219.815 41.3948L218.98 41.9448ZM219.707 44.4598C219.707 45.5847 219.405 46.4889 218.828 47.2063L219.607 47.8333C220.349 46.9107 220.707 45.7748 220.707 44.4598H219.707ZM218.823 47.2121C218.251 47.9452 217.479 48.4704 216.487 48.7828L216.787 49.7367C217.955 49.3691 218.903 48.7343 219.611 47.8274L218.823 47.2121ZM208.957 48.1998H212.797V47.1998H208.957V48.1998ZM212.797 48.1998C213.863 48.1998 214.762 47.9659 215.423 47.4274L214.791 46.6521C214.372 46.9936 213.731 47.1998 212.797 47.1998V48.1998ZM215.431 47.4204C216.104 46.8476 216.417 46.0465 216.417 45.0898H215.417C215.417 45.813 215.191 46.3119 214.783 46.6591L215.431 47.4204ZM216.417 45.0898C216.417 44.133 216.104 43.3319 215.431 42.7591L214.783 43.5204C215.191 43.8676 215.417 44.3665 215.417 45.0898H216.417ZM215.431 42.7591C214.77 42.1957 213.868 41.9498 212.797 41.9498V42.9498C213.726 42.9498 214.364 43.1638 214.783 43.5204L215.431 42.7591ZM212.797 41.9498H208.957V42.9498H212.797V41.9498ZM208.457 42.4498V47.6998H209.457V42.4498H208.457ZM213.187 57.0798C214.281 57.0798 215.202 56.8223 215.882 56.2394L215.232 55.4801C214.792 55.8572 214.133 56.0798 213.187 56.0798V57.0798ZM215.876 56.245C216.591 55.6534 216.927 54.8207 216.927 53.8198H215.927C215.927 54.5788 215.684 55.1061 215.238 55.4746L215.876 56.245ZM216.927 53.8198C216.927 52.7966 216.579 51.9457 215.847 51.3356L215.207 52.1039C215.675 52.4938 215.927 53.0429 215.927 53.8198H216.927ZM215.855 51.3419C215.14 50.7228 214.202 50.4398 213.097 50.4398V51.4398C214.032 51.4398 214.714 51.6767 215.2 52.0976L215.855 51.3419ZM213.097 50.4398H208.957V51.4398H213.097V50.4398ZM208.457 50.9398V56.5798H209.457V50.9398H208.457ZM208.957 57.0798H213.187V56.0798H208.957V57.0798ZM225.804 59.5198L225.451 59.8733L225.458 59.8807L225.466 59.8877L225.804 59.5198ZM225.804 56.0098L226.15 56.3708L226.151 56.3704L225.804 56.0098ZM229.524 56.0098L229.171 56.3634L229.178 56.3708L229.524 56.0098ZM229.524 59.5198L229.87 59.8808L229.878 59.8733L229.524 59.5198ZM227.694 59.7098C227.044 59.7098 226.54 59.5166 226.143 59.1518L225.466 59.8877C226.069 60.4429 226.825 60.7098 227.694 60.7098V59.7098ZM226.158 59.1662C225.775 58.7832 225.584 58.3218 225.584 57.7498H224.584C224.584 58.5777 224.874 59.2963 225.451 59.8733L226.158 59.1662ZM225.584 57.7498C225.584 57.178 225.774 56.731 226.15 56.3708L225.458 55.6488C224.874 56.2085 224.584 56.9215 224.584 57.7498H225.584ZM226.151 56.3704C226.548 55.9888 227.05 55.7898 227.694 55.7898V54.7898C226.819 54.7898 226.061 55.0707 225.458 55.6491L226.151 56.3704ZM227.694 55.7898C228.315 55.7898 228.794 55.986 229.171 56.3633L229.878 55.6562C229.295 55.0735 228.554 54.7898 227.694 54.7898V55.7898ZM229.178 56.3708C229.554 56.731 229.744 57.178 229.744 57.7498H230.744C230.744 56.9215 230.454 56.2085 229.87 55.6488L229.178 56.3708ZM229.744 57.7498C229.744 58.3218 229.554 58.7832 229.171 59.1662L229.878 59.8733C230.455 59.2963 230.744 58.5777 230.744 57.7498H229.744ZM229.178 59.1588C228.802 59.5192 228.321 59.7098 227.694 59.7098V60.7098C228.548 60.7098 229.286 60.4404 229.87 59.8807L229.178 59.1588ZM235.787 43.9798L235.354 43.7311L235.353 43.7328L235.787 43.9798ZM239.597 40.1698L239.843 40.6055L239.844 40.6045L239.597 40.1698ZM254.867 45.5698V46.0698H255.559L255.342 45.413L254.867 45.5698ZM250.037 45.5698L249.587 45.7861L249.723 46.0698H250.037V45.5698ZM247.997 43.3198L247.746 43.752L247.75 43.7545L247.997 43.3198ZM241.727 43.4398L241.983 43.8693L241.986 43.8677L241.727 43.4398ZM239.507 45.8398L239.064 45.6093L239.06 45.6161L239.507 45.8398ZM239.507 53.1598L239.058 53.38L239.064 53.3902L239.507 53.1598ZM241.727 55.5898L241.465 56.0154L241.475 56.0216L241.727 55.5898ZM247.997 55.6798L248.249 56.112L248.252 56.1102L247.997 55.6798ZM250.037 53.3998V52.8998H249.723L249.587 53.1834L250.037 53.3998ZM254.867 53.3998L255.343 53.5552L255.557 52.8998H254.867V53.3998ZM251.177 58.4098L251.458 58.8236L251.459 58.8229L251.177 58.4098ZM239.597 58.8298L239.348 59.2633L239.355 59.2668L239.597 58.8298ZM235.787 55.0198L235.353 55.2667L235.355 55.2707L235.787 55.0198ZM234.907 49.4998C234.907 47.5169 235.349 45.7636 236.222 44.2267L235.353 43.7328C234.385 45.4359 233.907 47.3626 233.907 49.4998H234.907ZM236.221 44.2284C237.118 42.6642 238.324 41.46 239.843 40.6055L239.352 39.734C237.671 40.6795 236.337 42.0153 235.354 43.7311L236.221 44.2284ZM239.844 40.6045C241.384 39.7304 243.107 39.2898 245.027 39.2898V38.2898C242.947 38.2898 241.051 38.7691 239.351 39.735L239.844 40.6045ZM245.027 39.2898C247.277 39.2898 249.227 39.865 250.896 41.0029L251.459 40.1766C249.608 38.9145 247.458 38.2898 245.027 38.2898V39.2898ZM250.896 41.0029C252.56 42.1378 253.725 43.7055 254.393 45.7265L255.342 45.413C254.61 43.194 253.314 41.4417 251.459 40.1766L250.896 41.0029ZM254.867 45.0698H250.037V46.0698H254.867V45.0698ZM250.488 45.3534C249.969 44.2708 249.222 43.4402 248.244 42.885L247.75 43.7545C248.533 44.1993 249.146 44.8687 249.587 45.7861L250.488 45.3534ZM248.249 42.8875C247.302 42.337 246.213 42.0698 244.997 42.0698V43.0698C246.062 43.0698 246.973 43.3025 247.746 43.752L248.249 42.8875ZM244.997 42.0698C243.695 42.0698 242.514 42.3806 241.469 43.0118L241.986 43.8677C242.861 43.3389 243.86 43.0698 244.997 43.0698V42.0698ZM241.472 43.0102C240.446 43.6212 239.643 44.4929 239.064 45.6093L239.951 46.0702C240.451 45.1066 241.129 44.3783 241.983 43.8693L241.472 43.0102ZM239.06 45.6161C238.499 46.7383 238.227 48.0378 238.227 49.4998H239.227C239.227 48.1617 239.476 47.0212 239.955 46.0634L239.06 45.6161ZM238.227 49.4998C238.227 50.9433 238.5 52.2408 239.059 53.38L239.956 52.9395C239.475 51.9587 239.227 50.8163 239.227 49.4998H238.227ZM239.064 53.3902C239.643 54.5053 240.443 55.3849 241.465 56.0153L241.99 55.1642C241.132 54.6346 240.452 53.8942 239.951 52.9293L239.064 53.3902ZM241.475 56.0216C242.519 56.6305 243.698 56.9298 244.997 56.9298V55.9298C243.857 55.9298 242.856 55.669 241.979 55.1579L241.475 56.0216ZM244.997 56.9298C246.213 56.9298 247.302 56.6625 248.249 56.112L247.746 55.2475C246.973 55.697 246.062 55.9298 244.997 55.9298V56.9298ZM248.252 56.1102C249.224 55.5356 249.969 54.6974 250.488 53.6161L249.587 53.1834C249.146 54.1021 248.531 54.784 247.743 55.2493L248.252 56.1102ZM250.037 53.8998H254.867V52.8998H250.037V53.8998ZM254.392 53.2443C253.724 55.2858 252.559 56.8625 250.896 57.9966L251.459 58.8229C253.316 57.557 254.61 55.7937 255.343 53.5552L254.392 53.2443ZM250.897 57.9959C249.25 59.113 247.3 59.6798 245.027 59.6798V60.6798C247.475 60.6798 249.625 60.0665 251.458 58.8236L250.897 57.9959ZM245.027 59.6798C243.105 59.6798 241.38 59.2482 239.84 58.3927L239.355 59.2668C241.055 60.2113 242.949 60.6798 245.027 60.6798V59.6798ZM239.847 58.3963C238.324 57.5207 237.117 56.3141 236.22 54.7688L235.355 55.2707C236.338 56.9654 237.671 58.2988 239.348 59.2632L239.847 58.3963ZM236.222 54.7728C235.349 53.2359 234.907 51.4826 234.907 49.4998H233.907C233.907 51.6369 234.385 53.5636 235.353 55.2667L236.222 54.7728ZM264.575 58.8298L264.819 58.3937L264.575 58.8298ZM260.675 55.0198L260.243 55.2723L260.245 55.2747L260.675 55.0198ZM260.675 43.9798L261.105 44.2347L261.106 44.2323L260.675 43.9798ZM264.575 40.1398L264.33 39.7037V39.7037L264.575 40.1398ZM275.375 40.1398L275.128 40.5745L275.13 40.5758L275.375 40.1398ZM279.245 43.9798L278.811 44.2284L278.815 44.2347L279.245 43.9798ZM279.245 55.0198L278.813 54.7672L278.812 54.7688L279.245 55.0198ZM275.375 58.8298L275.13 58.3937L275.375 58.8298ZM273.305 55.6198L273.557 56.0517L273.563 56.0477L273.305 55.6198ZM275.555 53.1598L276 53.3867L275.555 53.1598ZM275.555 45.8098L275.109 46.0367L275.111 46.0402L275.555 45.8098ZM273.305 43.3798L273.053 43.8116H273.053L273.305 43.3798ZM266.615 43.3798L266.367 42.9456L266.363 42.9479L266.615 43.3798ZM264.365 45.8098L264.809 46.0402L264.81 46.0367L264.365 45.8098ZM264.365 53.1598L264.81 52.9328L264.365 53.1598ZM266.615 55.6198L266.356 56.0478L266.367 56.0539L266.615 55.6198ZM269.975 59.7098C268.097 59.7098 266.381 59.27 264.819 58.3937L264.33 59.2658C266.048 60.2295 267.933 60.7098 269.975 60.7098V59.7098ZM264.819 58.3937C263.256 57.5168 262.02 56.3093 261.105 54.7649L260.245 55.2747C261.249 56.9702 262.613 58.3027 264.33 59.2658L264.819 58.3937ZM261.106 54.7672C260.195 53.2102 259.735 51.4487 259.735 49.4698H258.735C258.735 51.6108 259.235 53.5493 260.243 55.2723L261.106 54.7672ZM259.735 49.4698C259.735 47.5117 260.194 45.7711 261.105 44.2347L260.245 43.7249C259.235 45.4284 258.735 47.3478 258.735 49.4698H259.735ZM261.106 44.2323C262.022 42.6682 263.258 41.4519 264.819 40.5758L264.33 39.7037C262.612 40.6676 261.248 42.0113 260.243 43.7272L261.106 44.2323ZM264.819 40.5758C266.381 39.6995 268.097 39.2598 269.975 39.2598V38.2598C267.933 38.2598 266.048 38.74 264.33 39.7037L264.819 40.5758ZM269.975 39.2598C271.874 39.2598 273.588 39.7 275.128 40.5745L275.622 39.705C273.922 38.7395 272.036 38.2598 269.975 38.2598V39.2598ZM275.13 40.5758C276.691 41.4514 277.916 42.6664 278.811 44.2284L279.679 43.7311C278.694 42.0131 277.339 40.6682 275.619 39.7037L275.13 40.5758ZM278.815 44.2347C279.725 45.7711 280.185 47.5117 280.185 49.4698H281.185C281.185 47.3478 280.684 45.4284 279.675 43.7249L278.815 44.2347ZM280.185 49.4698C280.185 51.4487 279.725 53.2102 278.813 54.7672L279.676 55.2723C280.685 53.5493 281.185 51.6108 281.185 49.4698H280.185ZM278.812 54.7688C277.917 56.3111 276.692 57.5173 275.13 58.3937L275.619 59.2658C277.337 58.3022 278.692 56.9684 279.677 55.2707L278.812 54.7688ZM275.13 58.3937C273.568 59.27 271.853 59.7098 269.975 59.7098V60.7098C272.017 60.7098 273.901 60.2295 275.619 59.2658L275.13 58.3937ZM269.975 56.9598C271.311 56.9598 272.51 56.662 273.557 56.0516L273.053 55.1879C272.179 55.6975 271.158 55.9598 269.975 55.9598V56.9598ZM273.563 56.0477C274.608 55.4165 275.421 54.5246 276 53.3867L275.109 52.9328C274.609 53.9149 273.921 54.663 273.046 55.1918L273.563 56.0477ZM276 53.3867C276.582 52.245 276.865 50.9347 276.865 49.4698H275.865C275.865 50.8048 275.608 51.9545 275.109 52.9328L276 53.3867ZM276.865 49.4698C276.865 48.0051 276.582 46.7031 275.999 45.5793L275.111 46.0402C275.608 46.9964 275.865 48.1344 275.865 49.4698H276.865ZM276 45.5828C275.42 44.4436 274.605 43.5596 273.557 42.9479L273.053 43.8116C273.924 44.3199 274.61 45.0559 275.109 46.0367L276 45.5828ZM273.557 42.9479C272.51 42.3376 271.311 42.0398 269.975 42.0398V43.0398C271.158 43.0398 272.179 43.302 273.053 43.8116L273.557 42.9479ZM269.975 42.0398C268.638 42.0398 267.431 42.3376 266.367 42.9456L266.863 43.8139C267.759 43.3019 268.791 43.0398 269.975 43.0398V42.0398ZM266.363 42.9479C265.314 43.5596 264.5 44.4436 263.919 45.5828L264.81 46.0367C265.31 45.0559 265.995 44.3199 266.867 43.8116L266.363 42.9479ZM263.921 45.5793C263.338 46.7031 263.055 48.0051 263.055 49.4698H264.055C264.055 48.1344 264.312 46.9964 264.809 46.0402L263.921 45.5793ZM263.055 49.4698C263.055 50.9347 263.338 52.245 263.919 53.3867L264.81 52.9328C264.312 51.9545 264.055 50.8048 264.055 49.4698H263.055ZM263.919 53.3867C264.499 54.5246 265.311 55.4165 266.356 56.0477L266.873 55.1918C265.998 54.663 265.311 53.9149 264.81 52.9328L263.919 53.3867ZM266.367 56.0539C267.431 56.6619 268.638 56.9598 269.975 56.9598V55.9598C268.791 55.9598 267.759 55.6976 266.863 55.1856L266.367 56.0539ZM308.439 39.0598H308.939V38.5598H308.439V39.0598ZM308.439 59.9998V60.4998H308.939V59.9998H308.439ZM304.239 59.9998H303.739V60.4998H304.239V59.9998ZM304.239 46.3798H304.739L303.777 46.1893L304.239 46.3798ZM298.629 59.9998V60.4998H298.964L299.092 60.1902L298.629 59.9998ZM295.449 59.9998L294.988 60.1911L295.115 60.4998H295.449V59.9998ZM289.809 46.3798L290.271 46.1885L289.309 46.3798H289.809ZM289.809 59.9998V60.4998H290.309V59.9998H289.809ZM285.609 59.9998H285.109V60.4998H285.609V59.9998ZM285.609 39.0598V38.5598H285.109V39.0598H285.609ZM290.379 39.0598L290.839 38.8631L290.709 38.5598H290.379V39.0598ZM297.039 54.6298L296.58 54.8264L297.039 55.9011L297.499 54.8264L297.039 54.6298ZM303.699 39.0598V38.5598H303.37L303.24 38.8631L303.699 39.0598ZM307.939 39.0598V59.9998H308.939V39.0598H307.939ZM308.439 59.4998H304.239V60.4998H308.439V59.4998ZM304.739 59.9998V46.3798H303.739V59.9998H304.739ZM303.777 46.1893L298.167 59.8093L299.092 60.1902L304.702 46.5702L303.777 46.1893ZM298.629 59.4998H295.449V60.4998H298.629V59.4998ZM295.911 59.8085L290.271 46.1885L289.348 46.5711L294.988 60.1911L295.911 59.8085ZM289.309 46.3798V59.9998H290.309V46.3798H289.309ZM289.809 59.4998H285.609V60.4998H289.809V59.4998ZM286.109 59.9998V39.0598H285.109V59.9998H286.109ZM285.609 39.5598H290.379V38.5598H285.609V39.5598ZM289.92 39.2564L296.58 54.8264L297.499 54.4331L290.839 38.8631L289.92 39.2564ZM297.499 54.8264L304.159 39.2564L303.24 38.8631L296.58 54.4331L297.499 54.8264ZM303.699 39.5598H308.439V38.5598H303.699V39.5598Z" fill="black"/>
</g>
<defs>
<filter id="filter0_d_837_839" x="0.1875" y="1.71704" width="87.2007" height="92.0549" filterUnits="userSpaceOnUse" color-interpolation-filters="sRGB">
<feFlood flood-opacity="0" result="BackgroundImageFix"/>
<feColorMatrix in="SourceAlpha" type="matrix" values="0 0 0 0 0 0 0 0 0 0 0 0 0 0 0 0 0 0 127 0" result="hardAlpha"/>
<feOffset dy="4"/>
<feGaussianBlur stdDeviation="2"/>
<feComposite in2="hardAlpha" operator="out"/>
<feColorMatrix type="matrix" values="0 0 0 0 0 0 0 0 0 0 0 0 0 0 0 0 0 0 0.25 0"/>
<feBlend mode="normal" in2="BackgroundImageFix" result="effect1_dropShadow_837_839"/>
<feBlend mode="normal" in="SourceGraphic" in2="effect1_dropShadow_837_839" result="shape"/>
</filter>
<filter id="filter1_d_837_839" x="40.96" y="38.7598" width="271.479" height="29.45" filterUnits="userSpaceOnUse" color-interpolation-filters="sRGB">
<feFlood flood-opacity="0" result="BackgroundImageFix"/>
<feColorMatrix in="SourceAlpha" type="matrix" values="0 0 0 0 0 0 0 0 0 0 0 0 0 0 0 0 0 0 127 0" result="hardAlpha"/>
<feOffset dy="4"/>
<feGaussianBlur stdDeviation="2"/>
<feComposite in2="hardAlpha" operator="out"/>
<feColorMatrix type="matrix" values="0 0 0 0 0 0 0 0 0 0 0 0 0 0 0 0 0 0 0.25 0"/>
<feBlend mode="normal" in2="BackgroundImageFix" result="effect1_dropShadow_837_839"/>
<feBlend mode="normal" in="SourceGraphic" in2="effect1_dropShadow_837_839" result="shape"/>
</filter>
</defs>
</svg>
