<svg width="51" height="50" viewBox="0 0 51 50" fill="none" xmlns="http://www.w3.org/2000/svg">
<g clip-path="url(#clip0_837_784)">
<path d="M50.1811 25.0002C50.1811 11.1932 39.0587 0.000244141 25.3386 0.000244141C11.6186 0.000244141 0.496094 11.1932 0.496094 25.0002C0.496094 37.4784 9.58069 47.8211 21.457 49.6965V32.2268H15.1493V25.0002H21.457V19.4924C21.457 13.2268 25.1659 9.76587 30.8405 9.76587C33.5584 9.76587 36.4013 10.2542 36.4013 10.2542V16.4065H33.2688C30.1827 16.4065 29.2203 18.3336 29.2203 20.3108V25.0002H36.1102L35.0088 32.2268H29.2203V49.6965C41.0965 47.8211 50.1811 37.4786 50.1811 25.0002Z" fill="#1877F2"/>
<path d="M35.0089 32.2268L36.1103 25.0002H29.2204V20.3108C29.2204 18.3334 30.1828 16.4065 33.2689 16.4065H36.4014V10.2542C36.4014 10.2542 33.5585 9.76587 30.8404 9.76587C25.166 9.76587 21.4571 13.2268 21.4571 19.4924V25.0002H15.1494V32.2268H21.4571V49.6965C22.7412 49.899 24.039 50.0006 25.3387 50.0002C26.6385 50.0006 27.9363 49.8991 29.2204 49.6965V32.2268H35.0089Z" fill="white"/>
</g>
<defs>
<clipPath id="clip0_837_784">
<rect width="49.685" height="50" fill="white" transform="translate(0.496094 0.000244141)"/>
</clipPath>
</defs>
</svg>
