<svg width="50" height="50" viewBox="0 0 50 50" fill="none" xmlns="http://www.w3.org/2000/svg">
<path d="M37.3333 40.3333C35.0208 40.3333 33.1667 42.1875 33.1667 44.5C33.1667 45.6051 33.6057 46.6649 34.3871 47.4463C35.1685 48.2277 36.2283 48.6667 37.3333 48.6667C38.4384 48.6667 39.4982 48.2277 40.2796 47.4463C41.061 46.6649 41.5 45.6051 41.5 44.5C41.5 43.3949 41.061 42.3351 40.2796 41.5537C39.4982 40.7723 38.4384 40.3333 37.3333 40.3333ZM4 7V11.1667H8.16667L15.6667 26.9792L12.8333 32.0833C12.5208 32.6667 12.3333 33.3542 12.3333 34.0833C12.3333 35.1884 12.7723 36.2482 13.5537 37.0296C14.3351 37.811 15.3949 38.25 16.5 38.25H41.5V34.0833H17.375C17.2369 34.0833 17.1044 34.0285 17.0067 33.9308C16.909 33.8331 16.8542 33.7006 16.8542 33.5625C16.8542 33.4583 16.875 33.375 16.9167 33.3125L18.7917 29.9167H34.3125C35.875 29.9167 37.25 29.0417 37.9583 27.7708L45.4167 14.2917C45.5625 13.9583 45.6667 13.6042 45.6667 13.25C45.6667 12.6975 45.4472 12.1676 45.0565 11.7769C44.6658 11.3862 44.1359 11.1667 43.5833 11.1667H12.7708L10.8125 7M16.5 40.3333C14.1875 40.3333 12.3333 42.1875 12.3333 44.5C12.3333 45.6051 12.7723 46.6649 13.5537 47.4463C14.3351 48.2277 15.3949 48.6667 16.5 48.6667C17.6051 48.6667 18.6649 48.2277 19.4463 47.4463C20.2277 46.6649 20.6667 45.6051 20.6667 44.5C20.6667 43.3949 20.2277 42.3351 19.4463 41.5537C18.6649 40.7723 17.6051 40.3333 16.5 40.3333Z" fill="white"/>
</svg>
