<svg width="40" height="40" viewBox="0 0 40 40" fill="none" xmlns="http://www.w3.org/2000/svg">
<path d="M20.0002 19.1666C18.8951 19.1666 17.8353 18.7277 17.0539 17.9463C16.2725 17.1649 15.8335 16.105 15.8335 15C15.8335 13.8949 16.2725 12.8351 17.0539 12.0537C17.8353 11.2723 18.8951 10.8333 20.0002 10.8333C21.1052 10.8333 22.165 11.2723 22.9464 12.0537C23.7278 12.8351 24.1668 13.8949 24.1668 15C24.1668 15.5472 24.0591 16.089 23.8497 16.5945C23.6403 17.1 23.3334 17.5593 22.9464 17.9463C22.5595 18.3332 22.1002 18.6401 21.5947 18.8495C21.0892 19.0589 20.5473 19.1666 20.0002 19.1666ZM20.0002 3.33331C16.906 3.33331 13.9385 4.56248 11.7506 6.7504C9.56266 8.93832 8.3335 11.9058 8.3335 15C8.3335 23.75 20.0002 36.6666 20.0002 36.6666C20.0002 36.6666 31.6668 23.75 31.6668 15C31.6668 11.9058 30.4377 8.93832 28.2497 6.7504C26.0618 4.56248 23.0944 3.33331 20.0002 3.33331Z" fill="#FCCF31"/>
</svg>
