<svg width="57" height="57" viewBox="0 0 57 57" fill="none" xmlns="http://www.w3.org/2000/svg">
<path opacity="0.5" d="M52.25 23.75H4.75V45.125C4.75 47.0147 5.50067 48.8269 6.83686 50.1631C8.17306 51.4993 9.98533 52.25 11.875 52.25H45.125C47.0147 52.25 48.8269 51.4993 50.1631 50.1631C51.4993 48.8269 52.25 47.0147 52.25 45.125V23.75ZM16.625 19C15.9951 19 15.391 18.7498 14.9456 18.3044C14.5002 17.859 14.25 17.2549 14.25 16.625V7.125C14.25 6.49511 14.5002 5.89102 14.9456 5.44562C15.391 5.00022 15.9951 4.75 16.625 4.75C17.2549 4.75 17.859 5.00022 18.3044 5.44562C18.7498 5.89102 19 6.49511 19 7.125V16.625C19 17.2549 18.7498 17.859 18.3044 18.3044C17.859 18.7498 17.2549 19 16.625 19ZM40.375 19C39.7451 19 39.141 18.7498 38.6956 18.3044C38.2502 17.859 38 17.2549 38 16.625V7.125C38 6.49511 38.2502 5.89102 38.6956 5.44562C39.141 5.00022 39.7451 4.75 40.375 4.75C41.0049 4.75 41.609 5.00022 42.0544 5.44562C42.4998 5.89102 42.75 6.49511 42.75 7.125V16.625C42.75 17.2549 42.4998 17.859 42.0544 18.3044C41.609 18.7498 41.0049 19 40.375 19Z" fill="#FCD349"/>
<path d="M45.125 9.5H42.75V16.625C42.75 17.2549 42.4998 17.859 42.0544 18.3044C41.609 18.7498 41.0049 19 40.375 19C39.7451 19 39.141 18.7498 38.6956 18.3044C38.2502 17.859 38 17.2549 38 16.625V9.5H19V16.625C19 17.2549 18.7498 17.859 18.3044 18.3044C17.859 18.7498 17.2549 19 16.625 19C15.9951 19 15.391 18.7498 14.9456 18.3044C14.5002 17.859 14.25 17.2549 14.25 16.625V9.5H11.875C9.98533 9.5 8.17306 10.2507 6.83686 11.5869C5.50067 12.9231 4.75 14.7353 4.75 16.625V23.75H52.25V16.625C52.25 14.7353 51.4993 12.9231 50.1631 11.5869C48.8269 10.2507 47.0147 9.5 45.125 9.5Z" fill="#FCCF31"/>
</svg>
