<svg width="31" height="31" viewBox="0 0 31 31" fill="none" xmlns="http://www.w3.org/2000/svg">
<path opacity="0.5" d="M28.4168 12.9166H2.5835V24.5416C2.5835 25.5694 2.99175 26.555 3.71846 27.2817C4.44516 28.0084 5.43078 28.4166 6.4585 28.4166H24.5418C25.5695 28.4166 26.5552 28.0084 27.2819 27.2817C28.0086 26.555 28.4168 25.5694 28.4168 24.5416V12.9166ZM9.04183 10.3333C8.69926 10.3333 8.37072 10.1972 8.12848 9.95499C7.88625 9.71276 7.75016 9.38422 7.75016 9.04165V3.87498C7.75016 3.53241 7.88625 3.20387 8.12848 2.96163C8.37072 2.7194 8.69926 2.58331 9.04183 2.58331C9.3844 2.58331 9.71294 2.7194 9.95518 2.96163C10.1974 3.20387 10.3335 3.53241 10.3335 3.87498V9.04165C10.3335 9.38422 10.1974 9.71276 9.95518 9.95499C9.71294 10.1972 9.3844 10.3333 9.04183 10.3333ZM21.9585 10.3333C21.6159 10.3333 21.2874 10.1972 21.0452 9.95499C20.8029 9.71276 20.6668 9.38422 20.6668 9.04165V3.87498C20.6668 3.53241 20.8029 3.20387 21.0452 2.96163C21.2874 2.7194 21.6159 2.58331 21.9585 2.58331C22.3011 2.58331 22.6296 2.7194 22.8718 2.96163C23.1141 3.20387 23.2502 3.53241 23.2502 3.87498V9.04165C23.2502 9.38422 23.1141 9.71276 22.8718 9.95499C22.6296 10.1972 22.3011 10.3333 21.9585 10.3333Z" fill="#FCCF31"/>
<path d="M24.5418 5.16669H23.2502V9.04169C23.2502 9.38426 23.1141 9.7128 22.8718 9.95503C22.6296 10.1973 22.3011 10.3334 21.9585 10.3334C21.6159 10.3334 21.2874 10.1973 21.0452 9.95503C20.8029 9.7128 20.6668 9.38426 20.6668 9.04169V5.16669H10.3335V9.04169C10.3335 9.38426 10.1974 9.7128 9.95518 9.95503C9.71294 10.1973 9.3844 10.3334 9.04183 10.3334C8.69926 10.3334 8.37072 10.1973 8.12848 9.95503C7.88625 9.7128 7.75016 9.38426 7.75016 9.04169V5.16669H6.4585C5.43078 5.16669 4.44516 5.57494 3.71846 6.30165C2.99175 7.02835 2.5835 8.01397 2.5835 9.04169V12.9167H28.4168V9.04169C28.4168 8.01397 28.0086 7.02835 27.2819 6.30165C26.5552 5.57494 25.5695 5.16669 24.5418 5.16669Z" fill="#545454"/>
</svg>
