<svg width="57" height="57" viewBox="0 0 57 57" fill="none" xmlns="http://www.w3.org/2000/svg">
<path d="M28.5 27.3125C26.9253 27.3125 25.4151 26.6869 24.3016 25.5734C23.1881 24.4599 22.5625 22.9497 22.5625 21.375C22.5625 19.8003 23.1881 18.2901 24.3016 17.1766C25.4151 16.0631 26.9253 15.4375 28.5 15.4375C30.0747 15.4375 31.5849 16.0631 32.6984 17.1766C33.8119 18.2901 34.4375 19.8003 34.4375 21.375C34.4375 22.1547 34.2839 22.9268 33.9855 23.6472C33.6871 24.3676 33.2498 25.0221 32.6984 25.5734C32.1471 26.1248 31.4926 26.5621 30.7722 26.8605C30.0518 27.1589 29.2797 27.3125 28.5 27.3125ZM28.5 4.75C24.0908 4.75 19.8621 6.50156 16.7443 9.61935C13.6266 12.7371 11.875 16.9658 11.875 21.375C11.875 33.8438 28.5 52.25 28.5 52.25C28.5 52.25 45.125 33.8438 45.125 21.375C45.125 16.9658 43.3734 12.7371 40.2556 9.61935C37.1379 6.50156 32.9092 4.75 28.5 4.75Z" fill="#FCCF31"/>
</svg>
